<svg width="22" height="22" viewBox="0 0 22 22" fill="none" xmlns="http://www.w3.org/2000/svg">
<g clip-path="url(#clip0_102_48)">
<path d="M11 0.916668V21.0833" stroke="#11990F" stroke-width="2" stroke-linecap="round" stroke-linejoin="round"/>
<path d="M15.5833 4.58334H8.70833C7.85743 4.58334 7.04138 4.92136 6.4397 5.52304C5.83802 6.12471 5.5 6.94077 5.5 7.79167C5.5 8.64257 5.83802 9.45862 6.4397 10.0603C7.04138 10.662 7.85743 11 8.70833 11H13.2917C14.1426 11 14.9586 11.338 15.5603 11.9397C16.162 12.5414 16.5 13.3574 16.5 14.2083C16.5 15.0592 16.162 15.8753 15.5603 16.477C14.9586 17.0786 14.1426 17.4167 13.2917 17.4167H5.5" stroke="#11990F" stroke-width="2" stroke-linecap="round" stroke-linejoin="round"/>
</g>
<defs>
<clipPath id="clip0_102_48">
<rect width="22" height="22" fill="white"/>
</clipPath>
</defs>
</svg>
